<svg width="430.92001953125px" height="140.78001098632814px" xmlns="http://www.w3.org/2000/svg" viewBox="34.53999023437501 4.609994506835932 430.92001953125 140.78001098632814" style="background: rgb(246, 195, 195) none repeat scroll 0% 0%;" preserveAspectRatio="xMidYMid"><defs><linearGradient id="editing-gradient-gradient" x1="0" x2="1" y1="0.5" y2="0.5" gradientUnits="objectBoundingBox"><stop offset="0" stop-color="#8686e3"></stop><stop offset="1" stop-color="#f67171"></stop></linearGradient></defs><g><g transform="translate(99.45197296142578, 112.53033065795898)"><path d="M48.97-45.97L49.94-44.94L49.94-44.94Q48.38-43.28 47.03-41.47L47.03-41.47L47.03-41.47Q49.97-39.84 52.27-37.58L52.27-37.58L52.27-37.58Q54.56-35.31 56.14-32.59L56.14-32.59L56.14-32.59Q57.72-29.88 58.55-26.77L58.55-26.77L58.55-26.77Q59.38-23.66 59.38-20.34L59.38-20.34L59.38-20.34Q59.38-17.41 58.80-14.50L58.80-14.50L58.80-14.50Q58.22-11.59 56.98-8.95L56.98-8.95L56.98-8.95Q55.75-6.31 53.84-4.05L53.84-4.05L53.84-4.05Q51.94-1.78 49.28-0.11L49.28-0.11L49.28-0.11Q46.63 1.56 43.22 2.52L43.22 2.52L43.22 2.52Q39.81 3.47 35.56 3.47L35.56 3.47L35.56 3.47Q31.78 3.47 28.38 2.77L28.38 2.77L28.38 2.77Q24.97 2.06 21.84 1.22L21.84 1.22L21.84 1.22Q19.44 2.84 16.58 3.75L16.58 3.75L16.58 3.75Q13.72 4.66 10.13 4.66L10.13 4.66L10.13 4.66Q8.66 4.66 7.59 4.39L7.59 4.39L7.59 4.39Q6.53 4.13 5.86 3.66L5.86 3.66L5.86 3.66Q5.19 3.19 4.86 2.58L4.86 2.58L4.86 2.58Q4.53 1.97 4.53 1.31L4.53 1.31L4.53 1.31Q4.53 0.53 4.92-0.17L4.92-0.17L4.92-0.17Q5.31-0.88 6.11-1.41L6.11-1.41L6.11-1.41Q6.91-1.94 8.14-2.25L8.14-2.25L8.14-2.25Q9.38-2.56 11.03-2.56L11.03-2.56L11.03-2.56Q13.31-2.56 15.58-2.08L15.58-2.08L15.58-2.08Q17.84-1.59 20.19-0.97L20.19-0.97L20.19-0.97Q22.47-3.03 24.36-5.92L24.36-5.92L24.36-5.92Q26.25-8.81 27.98-12.23L27.98-12.23L27.98-12.23Q29.72-15.66 31.39-19.41L31.39-19.41L31.39-19.41Q33.06-23.16 34.95-26.94L34.95-26.94L34.95-26.94Q36.84-30.72 39.05-34.34L39.05-34.34L39.05-34.34Q41.25-37.97 44-41.16L44-41.16L44-41.16Q41.66-42.16 38.92-42.70L38.92-42.70L38.92-42.70Q36.19-43.25 33.06-43.25L33.06-43.25L33.06-43.25Q29.25-43.25 25.72-42.47L25.72-42.47L25.72-42.47Q22.19-41.69 19.13-40.31L19.13-40.31L19.13-40.31Q16.06-38.94 13.53-37.09L13.53-37.09L13.53-37.09Q11-35.25 9.20-33.11L9.20-33.11L9.20-33.11Q7.41-30.97 6.42-28.64L6.42-28.64L6.42-28.64Q5.44-26.31 5.44-24L5.44-24L5.44-24Q5.44-22.50 6.03-21.16L6.03-21.16L6.03-21.16Q6.63-19.81 7.66-18.80L7.66-18.80L7.66-18.80Q8.69-17.78 10.09-17.19L10.09-17.19L10.09-17.19Q11.50-16.59 13.16-16.59L13.16-16.59L13.16-16.59Q14.44-16.59 15.70-16.89L15.70-16.89L15.70-16.89Q16.97-17.19 18.13-17.63L18.13-17.63L18.13-17.63Q19.28-18.06 20.28-18.58L20.28-18.58L20.28-18.58Q21.28-19.09 22.03-19.55L22.03-19.55L22.03-19.55Q22.78-20 23.20-20.30L23.20-20.30L23.20-20.30Q23.63-20.59 23.66-20.63L23.66-20.63L24.66-19.31L24.66-19.31Q23.19-18.34 21.61-17.45L21.61-17.45L21.61-17.45Q20.03-16.56 18.34-15.86L18.34-15.86L18.34-15.86Q16.66-15.16 14.84-14.73L14.84-14.73L14.84-14.73Q13.03-14.31 11.16-14.31L11.16-14.31L11.16-14.31Q9.28-14.31 7.59-14.95L7.59-14.95L7.59-14.95Q5.91-15.59 4.64-16.77L4.64-16.77L4.64-16.77Q3.38-17.94 2.63-19.56L2.63-19.56L2.63-19.56Q1.88-21.19 1.88-23.16L1.88-23.16L1.88-23.16Q1.88-25.41 2.89-27.88L2.89-27.88L2.89-27.88Q3.91-30.34 5.80-32.77L5.80-32.77L5.80-32.77Q7.69-35.19 10.44-37.38L10.44-37.38L10.44-37.38Q13.19-39.56 16.64-41.23L16.64-41.23L16.64-41.23Q20.09-42.91 24.23-43.89L24.23-43.89L24.23-43.89Q28.38-44.88 33.06-44.88L33.06-44.88L33.06-44.88Q36.47-44.88 39.48-44.23L39.48-44.23L39.48-44.23Q42.50-43.59 45.13-42.41L45.13-42.41L45.13-42.41Q46.91-44.31 48.97-45.97L48.97-45.97ZM55.97-22.47L55.97-22.47L55.97-22.47Q55.97-25.38 55.31-28L55.31-28L55.31-28Q54.66-30.63 53.39-32.88L53.39-32.88L53.39-32.88Q52.13-35.13 50.28-36.97L50.28-36.97L50.28-36.97Q48.44-38.81 46.06-40.13L46.06-40.13L46.06-40.13Q43.78-36.84 41.91-33.19L41.91-33.19L41.91-33.19Q40.03-29.53 38.38-25.78L38.38-25.78L38.38-25.78Q36.72-22.03 35.13-18.34L35.13-18.34L35.13-18.34Q33.53-14.66 31.80-11.30L31.80-11.30L31.80-11.30Q30.06-7.94 28.03-5.05L28.03-5.05L28.03-5.05Q26-2.16 23.47-0.03L23.47-0.03L23.47-0.03Q25.97 0.66 28.47 1.17L28.47 1.17L28.47 1.17Q30.97 1.69 33.63 1.69L33.63 1.69L33.63 1.69Q39.13 1.69 43.31-0.20L43.31-0.20L43.31-0.20Q47.50-2.09 50.31-5.36L50.31-5.36L50.31-5.36Q53.13-8.63 54.55-13.03L54.55-13.03L54.55-13.03Q55.97-17.44 55.97-22.47ZM10 3.03L10 3.03L10 3.03Q12.53 3.03 14.64 2.33L14.64 2.33L14.64 2.33Q16.75 1.63 18.56 0.31L18.56 0.31L18.56 0.31Q16.50-0.22 14.63-0.58L14.63-0.58L14.63-0.58Q12.75-0.94 11.03-0.94L11.03-0.94L11.03-0.94Q8.59-0.94 7.39-0.30L7.39-0.30L7.39-0.30Q6.19 0.34 6.19 1.25L6.19 1.25L6.19 1.25Q6.19 1.97 7.05 2.50L7.05 2.50L7.05 2.50Q7.91 3.03 10 3.03ZM81.06-11.66L82.22-10.78L82.22-10.78Q81.75-10.09 81.11-8.92L81.11-8.92L81.11-8.92Q80.47-7.75 79.63-6.39L79.63-6.39L79.63-6.39Q78.78-5.03 77.77-3.63L77.77-3.63L77.77-3.63Q76.75-2.22 75.55-1.09L75.55-1.09L75.55-1.09Q74.34 0.03 72.94 0.75L72.94 0.75L72.94 0.75Q71.53 1.47 69.94 1.47L69.94 1.47L69.94 1.47Q69.06 1.47 68.28 1.20L68.28 1.20L68.28 1.20Q67.50 0.94 66.91 0.38L66.91 0.38L66.91 0.38Q66.31-0.19 65.97-1.02L65.97-1.02L65.97-1.02Q65.63-1.84 65.63-2.97L65.63-2.97L65.63-2.97Q65.63-4.50 66.23-6.17L66.23-6.17L66.23-6.17Q66.84-7.84 67.66-9.41L67.66-9.41L67.66-9.41Q68.47-10.97 69.28-12.27L69.28-12.27L69.28-12.27Q70.09-13.56 70.47-14.34L70.47-14.34L70.47-14.34Q70.84-15.13 70.84-15.69L70.84-15.69L70.84-15.69Q70.84-16.09 70.58-16.41L70.58-16.41L70.58-16.41Q70.31-16.72 69.92-17.02L69.92-17.02L69.92-17.02Q69.53-17.31 69.11-17.64L69.11-17.64L69.11-17.64Q68.69-17.97 68.41-18.44L68.41-18.44L68.41-18.44Q67.63-17.19 66.81-15.91L66.81-15.91L66.81-15.91Q66.09-14.81 65.25-13.45L65.25-13.45L65.25-13.45Q64.41-12.09 63.63-10.78L63.63-10.78L62.50-11.66L69.19-22.13L70.09-21.66L70.09-21.66Q70.03-21.47 69.89-21.06L69.89-21.06L69.89-21.06Q69.75-20.66 69.75-20.19L69.75-20.19L69.75-20.19Q69.75-19.84 69.86-19.52L69.86-19.52L69.86-19.52Q69.97-19.19 70.31-18.91L70.31-18.91L70.31-18.91Q71.56-17.78 72.28-17.17L72.28-17.17L72.28-17.17Q73-16.56 73.33-16.20L73.33-16.20L73.33-16.20Q73.66-15.84 73.73-15.61L73.73-15.61L73.73-15.61Q73.81-15.38 73.81-15L73.81-15L73.81-15Q73.81-14.63 73.69-14.09L73.69-14.09L73.69-14.09Q73.56-13.56 73.27-12.81L73.27-12.81L73.27-12.81Q72.97-12.06 72.45-11.05L72.45-11.05L72.45-11.05Q71.94-10.03 71.16-8.69L71.16-8.69L71.16-8.69Q70.69-7.88 70.23-7.05L70.23-7.05L70.23-7.05Q69.78-6.22 69.42-5.38L69.42-5.38L69.42-5.38Q69.06-4.53 68.84-3.69L68.84-3.69L68.84-3.69Q68.63-2.84 68.63-2.06L68.63-2.06L68.63-2.06Q68.63-1.47 68.80-1.11L68.80-1.11L68.80-1.11Q68.97-0.75 69.25-0.56L69.25-0.56L69.25-0.56Q69.53-0.38 69.86-0.31L69.86-0.31L69.86-0.31Q70.19-0.25 70.50-0.25L70.50-0.25L70.50-0.25Q71.53-0.25 72.55-0.86L72.55-0.86L72.55-0.86Q73.56-1.47 74.55-2.44L74.55-2.44L74.55-2.44Q75.53-3.41 76.45-4.64L76.45-4.64L76.45-4.64Q77.38-5.88 78.22-7.16L78.22-7.16L78.22-7.16Q79.06-8.44 79.78-9.61L79.78-9.61L79.78-9.61Q80.50-10.78 81.06-11.66L81.06-11.66ZM83.44-7.13L83.44-7.13L83.44-7.13Q83.38-6.75 83.34-6.38L83.34-6.38L83.34-6.38Q83.31-6 83.31-5.63L83.31-5.63L83.31-5.63Q83.31-4.50 83.64-3.48L83.64-3.48L83.64-3.48Q83.97-2.47 84.61-1.70L84.61-1.70L84.61-1.70Q85.25-0.94 86.20-0.50L86.20-0.50L86.20-0.50Q87.16-0.06 88.38-0.06L88.38-0.06L88.38-0.06Q92.47-0.06 96.28-2.84L96.28-2.84L96.28-2.84Q100.09-5.63 103.88-11.66L103.88-11.66L104.94-10.72L104.94-10.72Q102.88-7.28 100.75-4.92L100.75-4.92L100.75-4.92Q98.63-2.56 96.52-1.09L96.52-1.09L96.52-1.09Q94.41 0.38 92.38 1.03L92.38 1.03L92.38 1.03Q90.34 1.69 88.50 1.69L88.50 1.69L88.50 1.69Q87.16 1.69 85.66 1.31L85.66 1.31L85.66 1.31Q84.16 0.94 82.89 0.06L82.89 0.06L82.89 0.06Q81.63-0.81 80.80-2.28L80.80-2.28L80.80-2.28Q79.97-3.75 79.97-5.94L79.97-5.94L79.97-5.94Q79.97-8.28 80.77-10.45L80.77-10.45L80.77-10.45Q81.56-12.63 82.84-14.50L82.84-14.50L82.84-14.50Q84.13-16.38 85.78-17.92L85.78-17.92L85.78-17.92Q87.44-19.47 89.14-20.56L89.14-20.56L89.14-20.56Q90.84-21.66 92.47-22.27L92.47-22.27L92.47-22.27Q94.09-22.88 95.34-22.88L95.34-22.88L95.34-22.88Q96.16-22.88 97-22.63L97-22.63L97-22.63Q97.84-22.38 98.52-21.84L98.52-21.84L98.52-21.84Q99.19-21.31 99.61-20.44L99.61-20.44L99.61-20.44Q100.03-19.56 100.03-18.34L100.03-18.34L100.03-18.34Q100.03-16.69 99.27-15.23L99.27-15.23L99.27-15.23Q98.50-13.78 97.22-12.55L97.22-12.55L97.22-12.55Q95.94-11.31 94.25-10.33L94.25-10.33L94.25-10.33Q92.56-9.34 90.72-8.66L90.72-8.66L90.72-8.66Q88.88-7.97 87-7.56L87-7.56L87-7.56Q85.13-7.16 83.44-7.13ZM83.69-8.47L83.69-8.47L83.69-8.47Q85.78-8.69 87.63-9.34L87.63-9.34L87.63-9.34Q89.47-10 91-10.95L91-10.95L91-10.95Q92.53-11.91 93.73-13.03L93.73-13.03L93.73-13.03Q94.94-14.16 95.75-15.31L95.75-15.31L95.75-15.31Q96.56-16.47 97-17.53L97-17.53L97-17.53Q97.44-18.59 97.44-19.44L97.44-19.44L97.44-19.44Q97.44-20.28 96.98-20.78L96.98-20.78L96.98-20.78Q96.53-21.28 95.91-21.28L95.91-21.28L95.91-21.28Q94.53-21.28 92.81-20.30L92.81-20.30L92.81-20.30Q91.09-19.31 89.38-17.58L89.38-17.58L89.38-17.58Q87.66-15.84 86.14-13.50L86.14-13.50L86.14-13.50Q84.63-11.16 83.69-8.47ZM127.72-21.22L128.72-20.78L128.72-20.78Q128.31-19.97 127.58-18.66L127.58-18.66L127.58-18.66Q126.84-17.34 126-15.77L126-15.77L126-15.77Q125.16-14.19 124.30-12.47L124.30-12.47L124.30-12.47Q123.44-10.75 122.73-9.11L122.73-9.11L122.73-9.11Q122.03-7.47 121.58-6.02L121.58-6.02L121.58-6.02Q121.13-4.56 121.13-3.56L121.13-3.56L121.13-3.56Q121.13-2.56 121.52-2.27L121.52-2.27L121.52-2.27Q121.91-1.97 122.53-1.97L122.53-1.97L122.53-1.97Q123.44-1.97 124.39-2.50L124.39-2.50L124.39-2.50Q125.34-3.03 126.27-3.88L126.27-3.88L126.27-3.88Q127.19-4.72 128.06-5.78L128.06-5.78L128.06-5.78Q128.94-6.84 129.70-7.92L129.70-7.92L129.70-7.92Q130.47-9 131.09-9.98L131.09-9.98L131.09-9.98Q131.72-10.97 132.16-11.66L132.16-11.66L133.28-10.78L133.28-10.78Q132.75-9.78 132.03-8.63L132.03-8.63L132.03-8.63Q131.31-7.47 130.45-6.30L130.45-6.30L130.45-6.30Q129.59-5.13 128.59-4.03L128.59-4.03L128.59-4.03Q127.59-2.94 126.48-2.09L126.48-2.09L126.48-2.09Q125.38-1.25 124.16-0.75L124.16-0.75L124.16-0.75Q122.94-0.25 121.66-0.25L121.66-0.25L121.66-0.25Q119.78-0.25 118.91-1.38L118.91-1.38L118.91-1.38Q118.03-2.50 118.03-4.28L118.03-4.28L118.03-4.28Q118.03-4.41 118.05-4.83L118.05-4.83L118.05-4.83Q118.06-5.25 118.13-5.50L118.13-5.50L118.13-5.50Q116.56-3.53 115.14-2.25L115.14-2.25L115.14-2.25Q113.72-0.97 112.39-0.22L112.39-0.22L112.39-0.22Q111.06 0.53 109.83 0.83L109.83 0.83L109.83 0.83Q108.59 1.13 107.47 1.13L107.47 1.13L107.47 1.13Q106.28 1.13 105.23 0.73L105.23 0.73L105.23 0.73Q104.19 0.34 103.39-0.41L103.39-0.41L103.39-0.41Q102.59-1.16 102.14-2.25L102.14-2.25L102.14-2.25Q101.69-3.34 101.69-4.78L101.69-4.78L101.69-4.78Q101.69-6.56 102.48-8.86L102.48-8.86L102.48-8.86Q103.28-11.16 105.31-13.81L105.31-13.81L105.31-13.81Q107.03-16.09 108.89-17.66L108.89-17.66L108.89-17.66Q110.75-19.22 112.55-20.17L112.55-20.17L112.55-20.17Q114.34-21.13 115.97-21.53L115.97-21.53L115.97-21.53Q117.59-21.94 118.88-21.94L118.88-21.94L118.88-21.94Q121.75-21.94 123.22-20.98L123.22-20.98L123.22-20.98Q124.69-20.03 125-18.06L125-18.06L125-18.06Q125.63-18.84 126.31-19.63L126.31-19.63L126.31-19.63Q127-20.41 127.72-21.22L127.72-21.22ZM119.13-8.91L119.13-8.91L119.13-8.91Q119.53-9.56 120.13-10.58L120.13-10.58L120.13-10.58Q120.72-11.59 121.38-12.67L121.38-12.67L121.38-12.67Q122.03-13.75 122.66-14.75L122.66-14.75L122.66-14.75Q123.28-15.75 123.75-16.44L123.75-16.44L123.75-16.44Q123.75-16.72 123.67-17.34L123.67-17.34L123.67-17.34Q123.59-17.97 123.25-18.61L123.25-18.61L123.25-18.61Q122.91-19.25 122.16-19.72L122.16-19.72L122.16-19.72Q121.41-20.19 120.06-20.19L120.06-20.19L120.06-20.19Q119.09-20.19 117.89-19.89L117.89-19.89L117.89-19.89Q116.69-19.59 115.33-18.89L115.33-18.89L115.33-18.89Q113.97-18.19 112.53-17.03L112.53-17.03L112.53-17.03Q111.09-15.88 109.66-14.16L109.66-14.16L109.66-14.16Q107.50-11.56 106.33-8.95L106.33-8.95L106.33-8.95Q105.16-6.34 105.16-4.25L105.16-4.25L105.16-4.25Q105.16-2.47 105.97-1.50L105.97-1.50L105.97-1.50Q106.78-0.53 108.28-0.53L108.28-0.53L108.28-0.53Q110-0.53 111.50-1.30L111.50-1.30L111.50-1.30Q113-2.06 114.31-3.28L114.31-3.28L114.31-3.28Q115.63-4.50 116.81-5.98L116.81-5.98L116.81-5.98Q118-7.47 119.13-8.91ZM158.16-17L158.16-17L158.16-17Q159.06-18.06 160.03-18.97L160.03-18.97L160.03-18.97Q161-19.88 161.97-20.53L161.97-20.53L161.97-20.53Q162.94-21.19 163.89-21.55L163.89-21.55L163.89-21.55Q164.84-21.91 165.72-21.91L165.72-21.91L165.72-21.91Q166.41-21.91 167.08-21.67L167.08-21.67L167.08-21.67Q167.75-21.44 168.28-20.95L168.28-20.95L168.28-20.95Q168.81-20.47 169.13-19.72L169.13-19.72L169.13-19.72Q169.44-18.97 169.44-17.94L169.44-17.94L169.44-17.94Q169.44-16.44 169.03-14.98L169.03-14.98L169.03-14.98Q168.63-13.53 168-12.16L168-12.16L168-12.16Q167.38-10.78 166.67-9.50L166.67-9.50L166.67-9.50Q165.97-8.22 165.34-7.05L165.34-7.05L165.34-7.05Q164.72-5.88 164.31-4.83L164.31-4.83L164.31-4.83Q163.91-3.78 163.91-2.91L163.91-2.91L163.91-2.91Q163.91-2.22 164.27-1.92L164.27-1.92L164.27-1.92Q164.63-1.63 165.03-1.63L165.03-1.63L165.03-1.63Q165.84-1.63 166.95-2.56L166.95-2.56L166.95-2.56Q168.06-3.50 169.28-4.97L169.28-4.97L169.28-4.97Q170.50-6.44 171.73-8.20L171.73-8.20L171.73-8.20Q172.97-9.97 174.09-11.66L174.09-11.66L175.22-10.78L175.22-10.78Q174.81-10.13 174.17-9.05L174.17-9.05L174.17-9.05Q173.53-7.97 172.69-6.73L172.69-6.73L172.69-6.73Q171.84-5.50 170.84-4.23L170.84-4.23L170.84-4.23Q169.84-2.97 168.73-1.95L168.73-1.95L168.73-1.95Q167.63-0.94 166.44-0.30L166.44-0.30L166.44-0.30Q165.25 0.34 164.06 0.34L164.06 0.34L164.06 0.34Q163.41 0.34 162.80 0.16L162.80 0.16L162.80 0.16Q162.19-0.03 161.72-0.45L161.72-0.45L161.72-0.45Q161.25-0.88 160.97-1.56L160.97-1.56L160.97-1.56Q160.69-2.25 160.69-3.25L160.69-3.25L160.69-3.25Q160.69-4.63 161.16-5.94L161.16-5.94L161.16-5.94Q161.63-7.25 162.34-8.53L162.34-8.53L162.34-8.53Q163.06-9.81 163.89-11.08L163.89-11.08L163.89-11.08Q164.72-12.34 165.44-13.59L165.44-13.59L165.44-13.59Q166.16-14.84 166.63-16.11L166.63-16.11L166.63-16.11Q167.09-17.38 167.09-18.69L167.09-18.69L167.09-18.69Q167.09-19.34 166.84-19.73L166.84-19.73L166.84-19.73Q166.59-20.13 165.91-20.13L165.91-20.13L165.91-20.13Q164.81-20.13 163.59-19.23L163.59-19.23L163.59-19.23Q162.38-18.34 161.06-16.84L161.06-16.84L161.06-16.84Q159.75-15.34 158.38-13.36L158.38-13.36L158.38-13.36Q157-11.38 155.64-9.17L155.64-9.17L155.64-9.17Q154.28-6.97 152.95-4.70L152.95-4.70L152.95-4.70Q151.63-2.44 150.41-0.34L150.41-0.34L147.78-1.72L147.78-1.72Q149.44-5.13 150.89-7.81L150.89-7.81L150.89-7.81Q152.34-10.50 153.44-12.67L153.44-12.67L153.44-12.67Q154.53-14.84 155.16-16.64L155.16-16.64L155.16-16.64Q155.78-18.44 155.78-20.03L155.78-20.03L155.78-20.03Q155.78-20.34 155.72-20.67L155.72-20.67L155.72-20.67Q155.66-21 155.47-21.25L155.47-21.25L155.47-21.25Q155.28-21.50 154.98-21.67L154.98-21.67L154.98-21.67Q154.69-21.84 154.22-21.84L154.22-21.84L154.22-21.84Q153.16-21.84 152.06-20.86L152.06-20.86L152.06-20.86Q150.97-19.88 149.75-18.17L149.75-18.17L149.75-18.17Q148.53-16.47 147.14-14.20L147.14-14.20L147.14-14.20Q145.75-11.94 144.14-9.41L144.14-9.41L144.14-9.41Q142.53-6.88 140.66-4.20L140.66-4.20L140.66-4.20Q138.78-1.53 136.56 0.97L136.56 0.97L134.41-0.47L134.41-0.47Q135.41-1.97 136.52-3.64L136.52-3.64L136.52-3.64Q137.63-5.31 138.70-7.03L138.70-7.03L138.70-7.03Q139.78-8.75 140.77-10.45L140.77-10.45L140.77-10.45Q141.75-12.16 142.50-13.69L142.50-13.69L142.50-13.69Q143.25-15.22 143.69-16.50L143.69-16.50L143.69-16.50Q144.13-17.78 144.13-18.69L144.13-18.69L144.13-18.69Q144.13-19.75 143.59-20.22L143.59-20.22L143.59-20.22Q143.06-20.69 142.22-20.69L142.22-20.69L142.22-20.69Q141.22-20.69 140.27-19.97L140.27-19.97L140.27-19.97Q139.31-19.25 138.27-17.94L138.27-17.94L138.27-17.94Q137.22-16.63 136.02-14.80L136.02-14.80L136.02-14.80Q134.81-12.97 133.28-10.78L133.28-10.78L132.16-11.66L132.16-11.66Q133.81-14.28 135.14-16.28L135.14-16.28L135.14-16.28Q136.47-18.28 137.66-19.63L137.66-19.63L137.66-19.63Q138.84-20.97 140.02-21.66L140.02-21.66L140.02-21.66Q141.19-22.34 142.56-22.34L142.56-22.34L142.56-22.34Q142.97-22.34 143.61-22.19L143.61-22.19L143.61-22.19Q144.25-22.03 144.88-21.63L144.88-21.63L144.88-21.63Q145.50-21.22 145.98-20.50L145.98-20.50L145.98-20.50Q146.47-19.78 146.56-18.66L146.56-18.66L146.56-18.66Q148.31-20.91 150.22-22.25L150.22-22.25L150.22-22.25Q152.13-23.59 153.81-23.59L153.81-23.59L153.81-23.59Q155.03-23.59 155.88-23.11L155.88-23.11L155.88-23.11Q156.72-22.63 157.23-21.84L157.23-21.84L157.23-21.84Q157.75-21.06 157.98-20.08L157.98-20.08L157.98-20.08Q158.22-19.09 158.22-18.09L158.22-18.09L158.22-18.09Q158.22-17.84 158.20-17.56L158.20-17.56L158.20-17.56Q158.19-17.28 158.16-17ZM244.47-46.03L245.38-44.94L245.38-44.94Q244.88-44.31 244.42-43.73L244.42-43.73L244.42-43.73Q243.97-43.16 243.53-42.53L243.53-42.53L243.53-42.53Q246.69-41.38 248.63-39.67L248.63-39.67L248.63-39.67Q250.56-37.97 251.63-36.11L251.63-36.11L251.63-36.11Q252.69-34.25 253.05-32.45L253.05-32.45L253.05-32.45Q253.41-30.66 253.41-29.34L253.41-29.34L253.41-29.34Q253.41-27.50 252.80-25.83L252.80-25.83L252.80-25.83Q252.19-24.16 251.17-22.78L251.17-22.78L251.17-22.78Q250.16-21.41 248.81-20.39L248.81-20.39L248.81-20.39Q247.47-19.38 246-18.84L246-18.84L246-18.84Q249.03-16.34 250.52-13.28L250.52-13.28L250.52-13.28Q252-10.22 252-7.09L252-7.09L252-7.09Q252-4.47 250.92-2.13L250.92-2.13L250.92-2.13Q249.84 0.22 248 1.97L248 1.97L248 1.97Q246.16 3.72 243.64 4.75L243.64 4.75L243.64 4.75Q241.13 5.78 238.28 5.78L238.28 5.78L238.28 5.78Q235.81 5.78 233.73 4.98L233.73 4.98L233.73 4.98Q231.66 4.19 230.02 2.81L230.02 2.81L230.02 2.81Q228.38 1.44 227.17-0.44L227.17-0.44L227.17-0.44Q225.97-2.31 225.28-4.44L225.28-4.44L226.84-4.91L226.84-4.91Q228-1.16 230.66 0.89L230.66 0.89L230.66 0.89Q233.31 2.94 237.06 2.94L237.06 2.94L237.06 2.94Q239.38 2.94 241.48 2.08L241.48 2.08L241.48 2.08Q243.59 1.22 245.19-0.27L245.19-0.27L245.19-0.27Q246.78-1.75 247.72-3.77L247.72-3.77L247.72-3.77Q248.66-5.78 248.66-8.13L248.66-8.13L248.66-8.13Q248.66-9.72 248.22-11.16L248.22-11.16L248.22-11.16Q247.78-12.59 247.06-13.88L247.06-13.88L247.06-13.88Q246.34-15.16 245.45-16.23L245.45-16.23L245.45-16.23Q244.56-17.31 243.63-18.16L243.63-18.16L243.63-18.16Q242.78-18 241.94-17.91L241.94-17.91L241.94-17.91Q241.09-17.81 240.28-17.81L240.28-17.81L240.28-17.81Q239.16-17.81 237.98-17.98L237.98-17.98L237.98-17.98Q236.81-18.16 235.86-18.50L235.86-18.50L235.86-18.50Q234.91-18.84 234.30-19.41L234.30-19.41L234.30-19.41Q233.69-19.97 233.69-20.78L233.69-20.78L233.69-20.78Q233.69-20.97 233.78-21.33L233.78-21.33L233.78-21.33Q233.88-21.69 234.17-22.03L234.17-22.03L234.17-22.03Q234.47-22.38 235.06-22.64L235.06-22.64L235.06-22.64Q235.66-22.91 236.69-22.91L236.69-22.91L236.69-22.91Q237.66-22.91 238.64-22.69L238.64-22.69L238.64-22.69Q239.63-22.47 240.53-22.11L240.53-22.11L240.53-22.11Q241.44-21.75 242.28-21.30L242.28-21.30L242.28-21.30Q243.13-20.84 243.81-20.38L243.81-20.38L243.81-20.38Q244.94-20.88 246.08-21.73L246.08-21.73L246.08-21.73Q247.22-22.59 248.16-23.84L248.16-23.84L248.16-23.84Q249.09-25.09 249.69-26.72L249.69-26.72L249.69-26.72Q250.28-28.34 250.28-30.38L250.28-30.38L250.28-30.38Q250.28-33.94 248.31-36.78L248.31-36.78L248.31-36.78Q246.34-39.63 242.47-41.13L242.47-41.13L242.47-41.13Q240.59-38.50 238.97-35.91L238.97-35.91L238.97-35.91Q237.34-33.31 235.94-30.72L235.94-30.72L235.94-30.72Q234.53-28.13 233.30-25.53L233.30-25.53L233.30-25.53Q232.06-22.94 230.94-20.28L230.94-20.28L230.94-20.28Q228.34-14.22 225.88-9.92L225.88-9.92L225.88-9.92Q223.41-5.63 220.61-2.91L220.61-2.91L220.61-2.91Q217.81-0.19 214.52 1.08L214.52 1.08L214.52 1.08Q211.22 2.34 206.97 2.34L206.97 2.34L206.97 2.34Q203.69 2.34 201.31 1.27L201.31 1.27L201.31 1.27Q198.94 0.19 197.41-1.69L197.41-1.69L197.41-1.69Q195.88-3.56 195.14-6.05L195.14-6.05L195.14-6.05Q194.41-8.53 194.41-11.34L194.41-11.34L194.41-11.34Q194.41-14.47 195.41-17.80L195.41-17.80L195.41-17.80Q196.41-21.13 198.38-24.44L198.38-24.44L198.38-24.44Q199.63-26.53 201.47-28.80L201.47-28.80L201.47-28.80Q203.31-31.06 205.69-33.27L205.69-33.27L205.69-33.27Q208.06-35.47 210.98-37.45L210.98-37.45L210.98-37.45Q213.91-39.44 217.30-40.92L217.30-40.92L217.30-40.92Q220.69-42.41 224.55-43.30L224.55-43.30L224.55-43.30Q228.41-44.19 232.69-44.19L232.69-44.19L232.69-44.19Q235.31-44.19 237.48-43.92L237.48-43.92L237.48-43.92Q239.66-43.66 241.50-43.16L241.50-43.16L241.50-43.16Q242.22-43.88 242.95-44.59L242.95-44.59L242.95-44.59Q243.69-45.31 244.47-46.03L244.47-46.03ZM232.94-31.97L232.94-31.97L232.94-31.97Q234.59-34.72 236.39-37.14L236.39-37.14L236.39-37.14Q238.19-39.56 240.25-41.81L240.25-41.81L240.25-41.81Q239.06-42.09 237.73-42.25L237.73-42.25L237.73-42.25Q236.41-42.41 234.94-42.41L234.94-42.41L234.94-42.41Q230.22-42.41 225.64-41.11L225.64-41.11L225.64-41.11Q221.06-39.81 216.92-37.50L216.92-37.50L216.92-37.50Q212.78-35.19 209.25-32L209.25-32L209.25-32Q205.72-28.81 203.14-25.08L203.14-25.08L203.14-25.08Q200.56-21.34 199.11-17.19L199.11-17.19L199.11-17.19Q197.66-13.03 197.66-8.75L197.66-8.75L197.66-8.75Q197.66-6.63 198.23-4.89L198.23-4.89L198.23-4.89Q198.81-3.16 199.97-1.92L199.97-1.92L199.97-1.92Q201.13-0.69 202.83-0.02L202.83-0.02L202.83-0.02Q204.53 0.66 206.75 0.66L206.75 0.66L206.75 0.66Q210.47 0.66 213.25-0.73L213.25-0.73L213.25-0.73Q216.03-2.13 218.20-4.53L218.20-4.53L218.20-4.53Q220.38-6.94 222.13-10.14L222.13-10.14L222.13-10.14Q223.88-13.34 225.55-16.97L225.55-16.97L225.55-16.97Q227.22-20.59 228.97-24.44L228.97-24.44L228.97-24.44Q230.72-28.28 232.94-31.97ZM241.69-19.75L241.69-19.75L241.69-19.75Q241.22-20.09 240.58-20.39L240.58-20.39L240.58-20.39Q239.94-20.69 239.25-20.89L239.25-20.89L239.25-20.89Q238.56-21.09 237.88-21.22L237.88-21.22L237.88-21.22Q237.19-21.34 236.69-21.34L236.69-21.34L236.69-21.34Q235.81-21.34 235.58-21.14L235.58-21.14L235.58-21.14Q235.34-20.94 235.34-20.78L235.34-20.78L235.34-20.78Q235.34-20.50 235.77-20.28L235.77-20.28L235.77-20.28Q236.19-20.06 236.83-19.89L236.83-19.89L236.83-19.89Q237.47-19.72 238.25-19.63L238.25-19.63L238.25-19.63Q239.03-19.53 239.78-19.53L239.78-19.53L239.78-19.53Q240.13-19.53 240.56-19.56L240.56-19.56L240.56-19.56Q241-19.59 241.69-19.75ZM272.75-27.72L272.75-27.72L272.75-27.72Q272.75-27.09 272.44-26.42L272.44-26.42L272.44-26.42Q272.13-25.75 271.64-25.22L271.64-25.22L271.64-25.22Q271.16-24.69 270.56-24.34L270.56-24.34L270.56-24.34Q269.97-24 269.38-24L269.38-24L269.38-24Q268.84-24 268.56-24.39L268.56-24.39L268.56-24.39Q268.28-24.78 268.28-25.34L268.28-25.34L268.28-25.34Q268.28-25.84 268.47-26.53L268.47-26.53L268.47-26.53Q268.66-27.22 269.03-27.83L269.03-27.83L269.03-27.83Q269.41-28.44 269.94-28.88L269.94-28.88L269.94-28.88Q270.47-29.31 271.16-29.31L271.16-29.31L271.16-29.31Q271.81-29.31 272.28-28.81L272.28-28.81L272.28-28.81Q272.75-28.31 272.75-27.72ZM265.91-21.22L266.91-20.78L266.91-20.78Q266.50-19.97 265.77-18.64L265.77-18.64L265.77-18.64Q265.03-17.31 264.19-15.73L264.19-15.73L264.19-15.73Q263.34-14.16 262.47-12.42L262.47-12.42L262.47-12.42Q261.59-10.69 260.89-9.05L260.89-9.05L260.89-9.05Q260.19-7.41 259.75-5.97L259.75-5.97L259.75-5.97Q259.31-4.53 259.31-3.53L259.31-3.53L259.31-3.53Q259.31-2.63 259.69-2.30L259.69-2.30L259.69-2.30Q260.06-1.97 260.75-1.97L260.75-1.97L260.75-1.97Q262.03-1.97 263.25-2.81L263.25-2.81L263.25-2.81Q264.47-3.66 265.67-5.02L265.67-5.02L265.67-5.02Q266.88-6.38 268.03-8.13L268.03-8.13L268.03-8.13Q269.19-9.88 270.34-11.66L270.34-11.66L271.47-10.78L271.47-10.78Q270.56-9.16 269.42-7.31L269.42-7.31L269.42-7.31Q268.28-5.47 266.88-3.89L266.88-3.89L266.88-3.89Q265.47-2.31 263.78-1.28L263.78-1.28L263.78-1.28Q262.09-0.25 260.09-0.25L260.09-0.25L260.09-0.25Q258.22-0.25 257.22-1.38L257.22-1.38L257.22-1.38Q256.22-2.50 256.22-4.28L256.22-4.28L256.22-4.28Q256.22-6.38 257.19-8.66L257.19-8.66L257.19-8.66Q258.16-10.94 259.61-13.17L259.61-13.17L259.61-13.17Q261.06-15.41 262.77-17.47L262.77-17.47L262.77-17.47Q264.47-19.53 265.91-21.22L265.91-21.22ZM282.25-1.06L282.25-1.06L282.25-1.06Q280.63 0.03 278.89 0.70L278.89 0.70L278.89 0.70Q277.16 1.38 275.56 1.38L275.56 1.38L275.56 1.38Q274.38 1.38 273.19 1.03L273.19 1.03L273.19 1.03Q272 0.69 271.03-0.11L271.03-0.11L271.03-0.11Q270.06-0.91 269.45-2.22L269.45-2.22L269.45-2.22Q268.84-3.53 268.84-5.47L268.84-5.47L268.84-5.47Q268.84-7.81 269.69-9.97L269.69-9.97L269.69-9.97Q270.53-12.13 271.94-13.98L271.94-13.98L271.94-13.98Q273.34-15.84 275.16-17.38L275.16-17.38L275.16-17.38Q276.97-18.91 278.89-19.98L278.89-19.98L278.89-19.98Q280.81-21.06 282.72-21.66L282.72-21.66L282.72-21.66Q284.63-22.25 286.19-22.25L286.19-22.25L286.19-22.25Q287.72-22.25 288.80-21.92L288.80-21.92L288.80-21.92Q289.88-21.59 290.63-21.11L290.63-21.11L290.63-21.11Q291.38-20.63 291.81-20.06L291.81-20.06L291.81-20.06Q292.25-19.50 292.53-19L292.53-19L294.22-21.22L295.25-20.53L295.25-20.53Q295.25-20.50 294.75-19.55L294.75-19.55L294.75-19.55Q294.25-18.59 293.44-17L293.44-17L293.44-17Q292.63-15.41 291.55-13.27L291.55-13.27L291.55-13.27Q290.47-11.13 289.30-8.72L289.30-8.72L289.30-8.72Q288.13-6.31 286.92-3.75L286.92-3.75L286.92-3.75Q285.72-1.19 284.63 1.28L284.63 1.28L284.63 1.28Q287.47-0.34 289.63-1.84L289.63-1.84L289.63-1.84Q291.78-3.34 293.48-4.88L293.48-4.88L293.48-4.88Q295.19-6.41 296.56-8.06L296.56-8.06L296.56-8.06Q297.94-9.72 299.22-11.66L299.22-11.66L300.38-10.78L300.38-10.78Q299.13-8.75 297.67-7.02L297.67-7.02L297.67-7.02Q296.22-5.28 294.27-3.58L294.27-3.58L294.27-3.58Q292.31-1.88 289.70-0.08L289.70-0.08L289.70-0.08Q287.09 1.72 283.50 3.88L283.50 3.88L283.50 3.88Q280.53 11.16 277.78 15.92L277.78 15.92L277.78 15.92Q275.03 20.69 272.58 23.47L272.58 23.47L272.58 23.47Q270.13 26.25 268.02 27.38L268.02 27.38L268.02 27.38Q265.91 28.50 264.22 28.50L264.22 28.50L264.22 28.50Q263.53 28.50 262.73 28.33L262.73 28.33L262.73 28.33Q261.94 28.16 261.25 27.66L261.25 27.66L261.25 27.66Q260.56 27.16 260.11 26.28L260.11 26.28L260.11 26.28Q259.66 25.41 259.66 24.03L259.66 24.03L259.66 24.03Q259.66 21.41 261.05 18.84L261.05 18.84L261.05 18.84Q262.44 16.28 265.08 13.75L265.08 13.75L265.08 13.75Q267.72 11.22 271.55 8.72L271.55 8.72L271.55 8.72Q275.38 6.22 280.22 3.69L280.22 3.69L280.22 3.69Q280.81 2.34 281.31 1.14L281.31 1.14L281.31 1.14Q281.81-0.06 282.25-1.06ZM283.88-4.50L283.88-4.50L283.88-4.50Q284.72-6.09 285.55-7.64L285.55-7.64L285.55-7.64Q286.38-9.19 287.27-10.73L287.27-10.73L287.27-10.73Q288.16-12.28 289.17-13.91L289.17-13.91L289.17-13.91Q290.19-15.53 291.44-17.28L291.44-17.28L291.44-17.28Q291.38-17.75 291.13-18.25L291.13-18.25L291.13-18.25Q290.88-18.75 290.44-19.17L290.44-19.17L290.44-19.17Q290-19.59 289.31-19.88L289.31-19.88L289.31-19.88Q288.63-20.16 287.69-20.16L287.69-20.16L287.69-20.16Q286.63-20.16 285.27-19.88L285.27-19.88L285.27-19.88Q283.91-19.59 282.41-18.91L282.41-18.91L282.41-18.91Q280.91-18.22 279.36-17.06L279.36-17.06L279.36-17.06Q277.81-15.91 276.34-14.16L276.34-14.16L276.34-14.16Q274.19-11.59 273.03-9.05L273.03-9.05L273.03-9.05Q271.88-6.50 271.88-4.41L271.88-4.41L271.88-4.41Q271.88-2.38 272.91-1.33L272.91-1.33L272.91-1.33Q273.94-0.28 275.72-0.28L275.72-0.28L275.72-0.28Q277.59-0.28 279.70-1.44L279.70-1.44L279.70-1.44Q281.81-2.59 283.88-4.50ZM264.22 26.91L264.22 26.91L264.22 26.91Q265.41 26.91 266.69 26.03L266.69 26.03L266.69 26.03Q267.97 25.16 269.28 23.64L269.28 23.64L269.28 23.64Q270.59 22.13 271.88 20.13L271.88 20.13L271.88 20.13Q273.16 18.13 274.41 15.86L274.41 15.86L274.41 15.86Q275.66 13.59 276.80 11.22L276.80 11.22L276.80 11.22Q277.94 8.84 278.97 6.56L278.97 6.56L278.97 6.56Q274.31 9 271.02 11.64L271.02 11.64L271.02 11.64Q267.72 14.28 265.63 16.69L265.63 16.69L265.63 16.69Q263.53 19.09 262.58 21.03L262.58 21.03L262.58 21.03Q261.63 22.97 261.63 24L261.63 24L261.63 24Q261.63 25.28 262.19 26.09L262.19 26.09L262.19 26.09Q262.75 26.91 264.22 26.91Z" fill="url(#editing-gradient-gradient)"></path></g></g><style>text {
  font-size: 64px;
  font-family: Arial Black;
  dominant-baseline: central;
  text-anchor: middle;
}</style></svg>